<svg width="393" height="179" viewBox="0 0 393 179" fill="none" xmlns="http://www.w3.org/2000/svg">
<path d="M-25.8354 106.858C-113.311 104.114 -147.724 117.622 -150.672 130.866C-153.621 144.11 -138.944 145.67 -12.145 141.155C114.654 136.64 125.551 145.128 123.59 130.866C121.629 116.604 83.5092 110.288 -25.8354 106.858Z" fill="url(#paint0_linear_730_7408)"/>
<path d="M248.834 108.152C443.932 92.8186 464.963 141.198 471.296 160.219C477.628 179.24 446.105 181.481 173.758 174.996C-98.5894 168.512 -121.994 180.704 -117.782 160.219C-113.571 139.734 14.6494 126.557 248.834 108.152Z" fill="url(#paint1_linear_730_7408)"/>
<path opacity="0.3" fill-rule="evenodd" clip-rule="evenodd" d="M-19.3402 160.737C57.9976 156.453 322.916 142.085 396.752 137.69C403.202 137.307 412.345 132.196 411.422 119.841C410.371 105.762 393.839 109.946 393.839 109.946C393.839 109.946 401.706 100.112 394.179 88.5205C385.421 75.0339 374.665 81.2851 374.665 81.2851C374.665 81.2851 390.176 56.7534 369.13 42.8397C347.283 28.3973 333.86 48.4885 333.86 48.4885C333.86 48.4885 338.365 4.68089 296.582 0.397595C249.056 -4.47785 250.826 37.0947 250.826 37.0947C250.826 37.0947 233.382 12.3227 212.016 21.1923C188.072 31.1309 198.247 61.646 198.247 61.646C198.247 61.646 192.61 53.0056 182.489 57.573C175.016 60.9438 175.088 68.0976 175.323 72.6865C175.323 72.6865 174.564 60.3546 166.447 57.6691C156.777 54.4682 152.497 62.0223 152.497 62.0223C152.497 62.0223 157.954 45.2912 148.407 39.4036C134.646 30.9171 126.284 44.1365 126.284 44.1365C126.284 44.1365 121.501 19.306 97.1265 21.0794C72.7527 22.8528 66.5763 43.3094 68.7246 53.4195C68.7246 53.4195 57.4492 26.8098 31.9152 27.1579C0.766438 27.5817 -27.048 58.3965 -10.4518 93.3903C-10.4518 93.3903 -46.9271 96.3431 -51.1909 122.766C-54.3946 142.616 -45.5372 162.188 -19.3402 160.737Z" fill="#D2D3FB"/>
<defs>
<linearGradient id="paint0_linear_730_7408" x1="-13.4946" y1="106.59" x2="-44.0234" y2="191.567" gradientUnits="userSpaceOnUse">
<stop stop-color="#FFC429"/>
<stop offset="1" stop-color="#EB863E"/>
</linearGradient>
<linearGradient id="paint1_linear_730_7408" x1="176.656" y1="125.354" x2="207.953" y2="255.635" gradientUnits="userSpaceOnUse">
<stop stop-color="#FFC429"/>
<stop offset="1" stop-color="#EB863E"/>
</linearGradient>
</defs>
</svg>
